<?xml version="1.0" encoding="utf-8"?>
<!-- Generator: Adobe Illustrator 21.0.0, SVG Export Plug-In . SVG Version: 6.00 Build 0)  -->
<svg version="1.1" id="Шар_1" xmlns="http://www.w3.org/2000/svg" xmlns:xlink="http://www.w3.org/1999/xlink" x="0px" y="0px"
	 viewBox="0 0 3200 3200" style="enable-background:new 0 0 3200 3200;" xml:space="preserve">
<style type="text/css">
	.st0{display:none;}
	.st1{display:inline;}
	.st2{fill:#FFFFFF;}
</style>
<g id="Шар_2">
</g>
<g id="Шар_1_1_" class="st0">
	<g id="Layer_1" class="st1">
		
			<image style="overflow:visible;enable-background:new    ;" width="1699" height="2432" xlink:href="B063CB5FF3B7DC8F.png"  transform="matrix(3.2719 0 0 3.2724 -1359 -2609)">
		</image>
	</g>
	<g id="Layer_2" class="st1">
		<path class="st2" d="M944.5,2606c-5.3,0.1-5.3,7.9,0,8C949.8,2613.9,949.8,2606.2,944.5,2606z"/>
		<path d="M2320.7,1726.6c-36.1-9-72.6-16.6-109.4-22.6c-27.1-3.6-54.4-5.7-81.7-8.2c-41.3-2.2-82.5-4.8-123.9-5.5
			c-67.6-2.3-135.2-1.4-202.9-1.6c-41.5,0.9-82.9,2.2-124.4,3.2c-67.2,2.1-134.3,4.1-201.4,8.4c-21.2,0.9-42.4,3.3-63.5,5.5
			c-47,4.7-93.9,10.4-140.9,15.6c-31.9,3.5-63.8,7.7-95.6,12.2c-11.6,2-23.1,3.9-34.7,5.9c4.3-13.6,8.6-27.3,12.8-40.9
			c11-36.8,20.8-74.1,30.5-111.3c43.4-2.1,86.8-4.6,130.1-8.8c48.6-5.1,97.1-11.8,145.8-15.9l36.8-2.9c22.4-1,44.8-1.7,67.3-2.4
			c38.7-1.2,77.4-2.5,116.1-4.5c23.4-1.3,46.8-2.8,70.2-4.4c28.8-1.8,57.6-3.2,86.4-5.9c16.4-0.8,32.7-2.4,49.1-3.3
			c8.5-0.2,17-0.4,25.4-0.7c11.1,0.2,22.2,0.7,33.3,1.2c-12.2-3-24.5-6.3-37-8.2c-7.9-1.1-15.9-2.2-23.8-3.2
			c-12.3-0.9-24.6-1.4-36.9-2c-39.9-1.6-79.8,1.5-119.6,4.1c-39.1,2.6-78.3,4.4-117.4,5.8c-48.5,1.8-97.1,1.9-145.5,6.3
			c-50.2,3.9-100,10.8-150.1,15.8c-41.5,4.1-83.1,6.2-124.7,8.2c1.1-4.1,2.2-8.3,3.2-12.4c5.8-21,11.7-41.9,17.7-62.8
			c9.9-10.2,19.8-20.4,29.6-30.7c31.9-33.9,63.3-68.3,94-103.2c36.6-42.4,74.6-84.3,101.8-133.6c10.4-19.1,19.6-39.8,20.4-61.8
			c0.4-9.2-0.4-18.7-4.2-27.2c-3.7-7.6-9.4-14.8-17.3-18.1c-13.2-4.3-27.4-0.9-39.6,4.8c-16.7,7.2-32.2,17.2-45.6,29.6
			c-11.6,10.6-21.8,22.5-31.3,34.9c-11.3,14.6-21.7,29.9-30.6,46c-18.9,35-32.9,72.6-45.2,110.4c-13.5,42.7-26.5,85.7-39,128.7
			c-6.4,6.6-12.9,13.2-19.4,19.6c-7.6,7.3-15.2,14.7-22.8,22c-10.9,9.8-21.8,19.6-32.8,29.4c-12.3,10.1-24.6,20.2-37.1,30.2
			c-1.3,0.1-2.7,0.2-4,0.3c-36.5,2.6-72.8,7.2-109.1,11.6c-40.5,4.9-80.9,9.8-121,17.2c-15.3,3.2-30.7,6.2-45.7,10.8
			c-14.1,4.2-27.6,10.2-41,16.2c-24.3,10.3-47.3,24.5-65.4,43.9c-4.9,6.1-9.2,13-10.7,20.8c-1.8,10.2,0.3,21.8,7.3,29.8
			c7.1,6.5,16.7,9.4,26,11.3c8.5,1.7,17.1,1.7,25.8,1.5c23.4-0.5,46.4-5.3,69.2-10.6c24.3-5.7,48.1-13.2,71.5-21.7
			c13.4-4.9,26.5-10.8,39.7-16.1c14.3-5.6,28-12.7,41.8-19.2c18.8-9.1,37.4-18.8,55.6-29c23.7-13.3,45.5-29.5,66.8-46.3
			c24.3-1.8,48.7-3.3,73.1-4.6c-7.8,29.6-15.8,59.1-24.1,88.5c-6.7,21.1-13.3,42.2-20,63.3c-0.3,0.8-0.6,1.5-0.8,2.3
			c-3.9,0.7-7.9,1.3-11.8,2c-23.4,4.9-46.9,9.5-70.2,14.7c-17.1,4.1-34.3,8.2-51.4,12.4c-19.8,5.4-39.5,10.8-59.2,16.2
			c-23.4,7.7-46.7,15.8-70,23.6c-29.3,10.9-58,23.2-86.1,37c-12.5,6.2-24.9,12.8-36.6,20.4c-12.9,8.5-25,18-36.8,28
			c-7.4,6.3-14.5,13-21.3,20c-7.2,7.3-14.2,14.9-19.8,23.4c-12.8,19.2-19.8,42.4-19.1,65.4c0.2,14.3,4.3,28.3,11,40.9
			c4.1,7.4,8.5,14.9,14.8,20.7c5.9,5.6,12.9,9.7,19.9,13.6c10.2,5.8,21.1,10.1,32.6,12.4c12.3,2.7,25,2.7,37.5,2
			c7.8-0.4,15.5-1.2,23.2-2.4c7.4-1.1,14.9-1.8,22.3-3.4c21.6-3.6,42.9-9,63.9-15.3c12.4-3.9,24.8-8,36.6-13.4
			c9.2-4.3,17.7-9.8,26.3-15.2c31.5-20.7,64.1-40.7,90-68.3c10.4-10.9,19.5-22.9,28-35.3c9.2-13.3,17.9-27,25.8-41.1
			c7.2-13,14.1-26.2,20.1-39.8c7.7-17.7,14.4-35.8,21.4-53.7c4.7-12.9,9.3-25.8,13.9-38.7c15.7-2.7,31.3-5.5,47-8.2
			c22.9-3.1,45.8-6.4,68.8-9.2c70.9-7.9,141.7-17.4,212.8-23.5c83.9-5.6,168-8.2,252-10.6c43.1-1.1,86.1-2.8,129.2-2.5
			c45.8,0.1,91.6-0.7,137.4,0.8c23.2,0.6,46.4,1.1,69.6,1.7c31.2,1.8,62.5,2.5,93.7,5.1c65.2,6.2,130.6,10.4,196.1,11.2
			c2.3,0,4.6,0.1,6.9,0.1C2337.8,1730.9,2329.3,1728.7,2320.7,1726.6z M1242.1,1391.6c5.3-16.6,10.1-33.3,15.6-49.9
			c4-11.6,8-23.1,12.4-34.5c12.8-32.8,28.5-65.5,46.4-89.3c12.2-16.7,25.4-33,40.8-46.9c8.7-8.1,25.4-19.7,41.6-25.8
			c11-4.5,16.1-6.2,29.7-5c5.6,0.6,9.2,2.7,12.5,6.7c0.7,0.8,1.4,1.6,2,2.5c0.6,1,1.2,2.1,1.7,3.1c0.1,0.3,0.2,0.6,0.3,0.9
			c0.1,0.8,0.2,1.7,0.3,2.5c0,1.1,0.1,2.2,0,3.3c0,0.8-0.1,1.6-0.1,2.4c-0.1,1.3-0.3,2.7-0.5,4c-0.1,0.6-0.2,1.1-0.3,1.6
			c-4.6,17.4-8.8,25.3-19.1,43.6c-21.1,37.3-56.4,78.8-89,116.6c-29.2,34-59.4,67.2-89.8,100.2c-7.5,8-15.1,16.1-22.7,24.1
			C1229.8,1431.6,1235.9,1411.6,1242.1,1391.6z M1045,1607.6c-19.4,12.5-40,22.8-60.3,33.6c-16.6,8-32.8,16.7-49.8,23.7
			c-11.8,5-23.7,10-35.5,15c-33.2,12.6-62.2,21.6-94.9,28.4c-15.6,3.4-31.6,5.8-47.6,6.1c-8.2,0.2-16.5,0.3-24.6-1.1
			c-8-1.7-9-2.2-17.8-6.3c-4.4-2.7-3.5-1.4-6.4-4.9c-0.3-0.6-0.6-1.1-0.9-1.7c0.3-0.6,0.6-1.1,0.9-1.6c0.3-0.7,1-1.8,1.4-2.5
			c6.4-9,13-13.7,18.4-18.2c10.5-8.2,21.9-15.3,33.9-21.3c17.4-8.3,34.8-16.6,53.2-22.5c11.5-3.7,18-4.9,31.2-7.9
			c16.3-3.7,32.8-6.7,49.2-9.4c55.3-8.6,110.9-15.4,166.5-21.4c0.2,0,0.3,0,0.5-0.1C1056.7,1599.8,1050.9,1603.8,1045,1607.6z
			 M1128,1569.8c1.3-1.1,2.6-2.1,3.8-3.1c21.4-18.2,42.1-37.3,62.2-56.9l0.1-0.1c-2.2,7.9-4.5,15.8-6.7,23.7
			c-3,11.2-6,22.4-8.9,33.7C1161.7,1567.9,1144.8,1568.8,1128,1569.8z M1109.7,1792.8c-3.7,8.8-18.3,47.7-27.3,65.1
			c-10.8,21.7-23,42.3-33.5,57.5c-11.2,16.6-23.5,32.6-38,46.5c-12.8,12.5-21.4,18.7-37.6,30.4c-11.6,8.4-23.8,15.8-35.8,23.8
			c-10.5,6.8-21,13.7-32.3,19.2c-17.1,7.9-35.2,13.3-53.4,18.3c-3.9,1-7.8,1.9-11.7,2.9c-10.5,2.9-21.2,4.7-31.9,6.6
			c-4.9,0.9-9.8,1.6-14.7,2.2c-9.2,1.1-18.4,2.4-27.7,2.9c-13.1,0.6-26.3,0.8-39.2-2c-7.5-1.6-5.8-1.2-15-4.4
			c-12.5-5-28.5-15-33.2-19.6c-2.8-2.6-5.1-5.7-7.2-8.8c-2.1-3.4-4-6.9-5.8-10.5c-0.8-1.8-1.6-3.5-2.4-5.3c-0.8-2.2-1.5-4.4-2-6.7
			c-0.3-1.7-0.5-3.4-0.7-5.1c0-1.2-0.1-2.4,0-3.6c0-1,0-2,0.1-3c0.2-2.2,0.5-4.3,0.9-6.4c0.1-0.6,0.3-1.1,0.4-1.7
			c5.5-20.6,12-30.4,31.2-50.2c13.4-13.7,20.2-19.3,32.7-29.3c9.9-7.8,20.2-15.2,31.1-21.6c17.6-10.5,36.2-19.3,54.8-28
			c20.9-9.4,42-18.4,63.7-26c24.9-8.2,49.4-17.8,74.7-24.8c35.3-10,61.8-16.8,97.8-25.3c23.1-5,46.2-9.8,69.4-14.7
			c0.1,0,0.2,0,0.3-0.1C1115,1778.2,1112.3,1785.5,1109.7,1792.8z"/>
	</g>
	<g id="Layer_3" class="st1">
		<path d="M1409,747L1409,747L1409,747z"/>
	</g>
</g>
<g id="Шар_3">
</g>
<g id="Шар_4">
</g>
<g id="Шар_5">
</g>
<g id="Шар_6">
</g>
<g id="Шар_7">
</g>
<g id="Шар_8">
</g>
<g id="Шар_9">
</g>
<g id="Шар_10">
	<g>
		<g>
			<path d="M1015.4,1721.9c-338.1,258-514.9,211.9-565.9,188.2c-15.8-7.3-20.9-27.3-10.4-41.2c45.9-60.3,226-110.9,226-110.9
				c569.7-143.4,1486.7-125.5,1486.7-125.5l85.3,40.1C1805.3,1627.3,1015.4,1721.9,1015.4,1721.9z M939.7,1741.8
				c0,0-414.9,73.8-468.1,139.9c-1.4,1.7-0.4,4.2,1.7,4.9C496.3,1894.5,627.4,1924.9,939.7,1741.8z"/>
			<path d="M1007,1691.5c0,0,122.1-128.7,133.2-162c0,0,54.6-299.7,193.8-486.1c0,0,34.9-59.9,61.5,0c0,0-20,142.1-73.3,219.8
				c0,0-119.9,244.2-153.2,273l-33.3,144.3h-33.3l13.3-50.6l-55.5,61.7H1007V1691.5z M1353.3,1076.6
				c-36.6,1.6-152.1,339.6-152.1,339.6C1282.3,1325.3,1353.3,1076.6,1353.3,1076.6z"/>
			<path d="M1131.3,1697.1c0,0-93.7,467.1-153.7,538.5c-1.3,1.5-2.5,3-3.7,4.5c-17.3,21.9-148.2,173-426.6,118.6
				c-42.9-8.4-82.4-29.6-108.8-64.3c-27.7-36.4-46-90.3-10.9-161.5c1.7-3.3,3.3-6.7,4.9-10.1c12.9-27.5,113.6-200.7,630.1-260.5
				l33.3-165.3L1131.3,1697.1L1131.3,1697.1z M1047,1895.7c0,0-441.4,58.2-578.4,239.4c-22.5,29.8-29.4,68.8-17.4,104.1
				c16.4,48.5,71.6,101.9,236.2,98.2c0,0,63.6,0,133.4-27.3c83.7-32.7,146.1-104.4,168.6-191.4L1047,1895.7z"/>
			<path d="M1086.9,1862.6c0,0,335.2-59.9,1087.7-44.4c0,0,712.5,42.2,774.7,57.7l55.5,40c0,0-652.6-75.5-790.2-59.9
				c0,0-415.1-20-586-2.2c0,0-492.8,22.2-550.5,35.5L1086.9,1862.6z"/>
		</g>
		<path d="M1422.2,1370c-2,1.2-3.9,2.9-5.4,5.4c-4.8,7.9-1.6,18.2,6.4,22.8c3,1.7,6.8,3.1,11.6,3.5c8.7,0.7,17.3-2.1,24.1-7.6
			c7.3-5.9,18.9-16,27.5-26.7c7.8-9.7,10.5-22.6,6.6-34.4c-1.7-5.3-4.8-10.2-10-13.2c0,0-22.1-17.3-55.2-2.4
			c-2.8,1.2-4.6,1.9-8.4,3.3c-13.5,4.9-54.6,21.6-75.4,58.4c-1.5,2.6-3.1,5.2-4.8,7.7c-9.1,13.1-38.5,64.5-6.4,141.9
			c1.7,4.1,3,8.4,4.3,12.6c2.3,7.7,7.7,16.7,12.2,35.1c1.9,8-0.9,16.6-7.4,21.6c-0.1,0-0.1,0.1-0.2,0.1c0,0-18.3,28-106.8,29.1
			c0,0-11.5-22.9-30.1-8.9c-7.7,5.8-11.1,16-7.6,25.1c1.6,4.2,4.5,8.5,9.6,12.2c4.6,3.3,10,5.2,15.7,5.8
			c18.9,2.2,79.8,5.6,133.1-30.3c11.3-7.6,20.5-18.1,25.7-30.7c6.1-14.6,8.5-34.8-6.1-57.4c0,0-5.1-7.6-11-20.9
			c-10.5-23.8-11.9-49.8-9.2-75.7c1.8-17.2,5-33.4,14.2-49.1c7.5-12.9,18.3-23.5,31-31.3c13-8,33.9-20.1,44-21.5c0,0,23-3.5,10.5,11
			c-2.7,3.2-5.2,6.5-7.6,10c-2.3,3.4-6.4,7-12.2,4.1C1430.9,1367.8,1426.1,1367.7,1422.2,1370z"/>
		<path d="M1522.9,1578.9c15.8-10.1,24.7-19.7,29.5-26.1c8.8-11.9,18.6-22.9,29-33.4c26.6-26.9,62-60.4,83.5-80.5
			c16.8-15.7,39.3-24.3,62.2-22.9c19.3,1.1,27.6,8.4,32.7,12.8c2.3,2,3.1,3.1,5.4,5.1c3.6,3.1,6.3,9.2,6.5,14.8
			c0.3,8.8-2.5,17.5-7.5,24.7c-8.8,12.7-25.5,41.8-33.1,55.2c-3.2,5.7-5.7,11.8-7.1,18.2c-8.3,35.9,11.8,38.5,25.9,36.4
			c7-1.1,13.5-3.8,19.3-7.8c31.1-21.3,67.5-59.2,75.1-67.3c1.1-1.1,2.1-2.3,3-3.5c4.1-5.1,7.8-10.3,10-13.7c1.4-2.1,2.6-4.3,3.6-6.6
			c21.9-52.5,65.8-58.5,65.8-58.5c39.5-4,57.9,11.3,66.5,27.7c8.5,16.4,7.5,36-1.8,52c-16.3,28.1-39.4,48.3-52.3,57.8
			c-4.7,3.5-9,7.4-13.6,11c-23.1,18.1-56.4,17.7-56.4,17.7l-8,92.4l-1.3,231.7c0,0,4,37.6-21.4,89.9c-25.4,52.3-65.6,40.2-91.1,17.4
			c-25.5-22.8-17.4-79.7-12.6-103.8c7.2-36.1,97-180.3,97-180.3l97.8-107.4c16.1-25.7,111.9-125.7,111.9-125.7
			c43.6-33.5,32.8,13.4,32.8,13.4l-20.1,25.5c-5.4,9.4-104.5,107.2-104.5,107.2l-116.2,135.4c0,0-3.6,10.2-8.4,15.6
			c-4.9,5.3-18.8,36.9-18.8,36.9c-3.5,0.7-13.2,29.1-23.7,51.6c-11.3,24.1-14.1,53-12.1,80.4c4.6,63.6,34.6,21.5,34.6,21.5
			c24.4-28,25.6-174.2,25.6-174.2c-13.4-65.8,6.1-255.8,6.1-255.8s-48.7,67-104.9,59.5c-46.6-6.2-45.1-55.7-43.3-72.3
			c0.3-3.1,1-6.1,1.9-9.1c16.7-54.8,24.7-63.2,30.1-69.9c1.6-2.1,3-1.8,4.9-3.7c6.1-6.2,7-11.4,5.3-13.8c-1.3-1.8-3.5-2.8-5.8-2.8
			c-22.2,0.2-24.3,1.9-28.6,4.6c-2.8,1.7-7,7.1-9.6,9.2c-24,19.7-103.8,105-115.4,117.5c-0.9,1-1.9,2-3,2.9
			c-56.1,50.7-86.3,35.1-86.3,35.1c-7-2.4-12.6-6-17-10c-10.7-9.7-16.3-24-15.7-38.5c4-97.4,61.9-125.7,61.9-125.7
			c76.8-20.7,56,46.3,56,46.3c-29.2,70.7-72.6,90.2-72.6,90.2c3.4,1.2,6.8,1.6,10,1.6C1511.2,1584.5,1517.4,1582.3,1522.9,1578.9z
			 M1534.3,1476.2c-29.1,3-48.2,73.3-48.2,73.3C1531.3,1526.5,1534.3,1476.2,1534.3,1476.2z M1951.3,1499.3
			c21.1-42.2-13.1-40.2-13.1-40.2c-45.2-2-61.3,97.5-61.3,97.5C1917.2,1549.8,1951.3,1499.3,1951.3,1499.3z"/>
		<path d="M2097,1463.5c-5.9,10.6-12.9,28.2-15.4,40.9c-0.5,2.6-0.7,7-1.2,9.7c-2.9,14.4-8.5,50.7,0.7,79.7
			c4.5,14.3,15.3,25.5,29.4,30.7c14.4,5.2,34.7,7.9,52.3-7.3c1.8-1.5,3.6-3,5.4-4.4c10.7-7.9,47.5-37.4,57.9-77.4
			c0,0,12.6-38.5-12.3-34.2c-8.9,1.5-16.3,7.5-20.2,15.7c-2.9,6.1-6.3,13.7-7.6,19c-0.4,1.6-0.9,3.2-1.5,4.8
			c-3.4,9-15.1,36.6-32.7,47.5c-1.6,1-3.2,2-4.8,3.1c-5.5,3.9-21.3,12.5-32.8-7.5c-3.2-5.5-5.1-11.6-5.8-18
			c-1.9-17-5.4-60.6,7.9-73.8c2.5-2.4,4.9-4.9,6.9-7.7c0.5-0.6,1-1.3,1.4-2c3.6-5.1,5.6-11.3,5.1-17.6c-0.5-6.6-3.4-13.6-13.9-13.1
			C2108,1451.9,2100.9,1456.6,2097,1463.5z"/>
		<ellipse transform="matrix(0.5 -0.866 0.866 0.5 -150.6017 2553.7827)" cx="2136.4" cy="1407.3" rx="17.8" ry="16.2"/>
		<path d="M2103.8,2031c13.4-40.2,71.1-211.2,85.8-232.1c1.2-1.7,2.2-3.4,3-5.3c2.9-6.2,10.2-18,22.7-13.4
			c8.9,3.3,14.2,12.4,13.2,21.8c-0.7,6.4-1.9,15.5-4.3,26.8c0,0,138.7-292.2,169-310.4c0.8-0.5,1.5-1,2.2-1.6
			c4.2-3.5,18.8-14.3,24.5,1.7c2.7,7.5,1.7,15.8-2.3,22.7c-4.3,7.5-11.1,18.9-18.7,29.1c-2.7,3.7-5.1,7.6-7.4,11.5
			c-20.7,37-116.7,208.3-116.7,215.1l-32.9,65.9c0,0-20.8,53-49.3,12.5l-57.2,165c-1.9,5.5-5.4,10.3-10.3,13.4
			c-5.1,3.2-11.6,4.7-17.7-2.3C2102.7,2045.9,2101.5,2038,2103.8,2031z"/>
	</g>
</g>
</svg>
